<svg width="462" height="52" viewBox="0 0 462 52" fill="none" xmlns="http://www.w3.org/2000/svg">
<path d="M424.406 49C422.7 49 421.142 48.5947 419.734 47.784C418.369 46.9307 417.26 45.8213 416.406 44.456C415.596 43.048 415.191 41.4907 415.191 39.784V12.136C415.191 10.4293 415.596 8.89333 416.406 7.528C417.26 6.12 418.369 5.01066 419.734 4.2C421.142 3.34666 422.7 2.92 424.406 2.92H457.143C459.352 2.92 461.143 4.71086 461.143 6.92V8.2C461.143 10.4091 459.352 12.2 457.143 12.2H426.583C425.9 12.2 425.367 12.392 424.983 12.776C424.599 13.1173 424.406 13.6507 424.406 14.376V37.544C424.406 38.2267 424.599 38.76 424.983 39.144C425.367 39.528 425.9 39.72 426.583 39.72H457.143C459.352 39.72 461.143 41.5109 461.143 43.72V45C461.143 47.2091 459.352 49 457.143 49H424.406Z" fill="white"/>
<path d="M370.319 49C368.109 49 366.319 47.2091 366.319 45V6.92C366.319 4.71086 368.109 2.92 370.319 2.92H404.815C407.024 2.92 408.815 4.71086 408.815 6.92V8.2C408.815 10.4091 407.024 12.2 404.815 12.2H379.663C377.453 12.2 375.663 13.9909 375.663 16.2V17.288C375.663 19.4971 377.453 21.288 379.663 21.288H398.351C400.56 21.288 402.351 23.0789 402.351 25.288V26.632C402.351 28.8411 400.56 30.632 398.351 30.632H379.663C377.453 30.632 375.663 32.4229 375.663 34.632V35.72C375.663 37.9291 377.453 39.72 379.663 39.72H404.815C407.024 39.72 408.815 41.5109 408.815 43.72V45C408.815 47.2091 407.024 49 404.815 49H370.319Z" fill="white"/>
<path d="M320.38 49C318.17 49 316.38 47.2091 316.38 45V6.856C316.38 4.64686 318.17 2.856 320.38 2.856H321.596C323.805 2.856 325.596 4.64686 325.596 6.856V35.72C325.596 37.9291 327.386 39.72 329.596 39.72H358.46C360.669 39.72 362.46 41.5109 362.46 43.72V45C362.46 47.2091 360.669 49 358.46 49H320.38Z" fill="white"/>
<path d="M238.881 49C236.672 49 234.881 47.2091 234.881 45V16.2C234.881 13.9909 233.09 12.2 230.881 12.2H220.449C218.24 12.2 216.449 10.4091 216.449 8.2V6.92C216.449 4.71086 218.24 2.92 220.449 2.92H258.529C260.738 2.92 262.529 4.71086 262.529 6.92V8.2C262.529 10.4091 260.738 12.2 258.529 12.2H248.161C245.952 12.2 244.161 13.9909 244.161 16.2V45C244.161 47.2091 242.37 49 240.161 49H238.881Z" fill="white"/>
<path d="M204.03 49C202.848 49 201.726 48.4765 200.965 47.5702L194.042 39.3142C191.859 36.7112 193.71 32.744 197.107 32.744H198.768C199.947 32.744 201.067 33.2649 201.827 34.1674L211.396 45.531C211.717 45.9114 211.893 46.3927 211.893 46.8901C211.893 48.0553 210.948 49 209.783 49H204.03ZM169.94 49C167.731 49 165.94 47.2091 165.94 45V6.98399C165.94 4.77485 167.731 2.98399 169.94 2.98399H202.74C204.447 2.98399 205.983 3.41066 207.348 4.26399C208.756 5.07466 209.887 6.184 210.74 7.592C211.594 8.99999 212.02 10.536 212.02 12.2V24.36C212.02 26.024 211.594 27.56 210.74 28.968C209.887 30.3333 208.756 31.4427 207.348 32.296C205.983 33.1067 204.447 33.512 202.74 33.512L179.147 33.5667C176.942 33.5719 175.156 35.3612 175.156 37.5667V45C175.156 47.2091 173.366 49 171.156 49H169.94ZM175.54 24.232H202.292C202.42 24.232 202.506 24.2107 202.548 24.168C202.634 24.0827 202.676 23.9973 202.676 23.912V12.584C202.676 12.3874 202.489 12.2 202.292 12.2H175.54C175.412 12.2 175.306 12.2427 175.22 12.328C175.178 12.3707 175.156 12.456 175.156 12.584V23.912C175.156 24.0849 175.305 24.2199 175.478 24.2302C175.498 24.2314 175.519 24.232 175.54 24.232Z" fill="white"/>
<path d="M116.568 49C114.359 49 112.568 47.2091 112.568 45V12.136C112.568 10.4293 112.974 8.89333 113.785 7.528C114.638 6.12 115.747 5.01066 117.112 4.2C118.52 3.34666 120.078 2.92 121.785 2.92H149.368C151.075 2.92 152.611 3.34666 153.977 4.2C155.385 5.01066 156.515 6.12 157.368 7.528C158.222 8.89333 158.648 10.4293 158.648 12.136V45C158.648 47.2091 156.858 49 154.649 49H153.305C151.095 49 149.305 47.2091 149.305 45V37.832C149.305 35.6229 147.514 33.832 145.304 33.832H125.785C123.575 33.832 121.785 35.6229 121.785 37.832V45C121.785 47.2091 119.994 49 117.785 49H116.568ZM121.785 20.616C121.785 22.8251 123.575 24.616 125.785 24.616H145.305C147.514 24.616 149.305 22.8251 149.305 20.616V12.584C149.305 12.3874 149.117 12.2 148.921 12.2H122.168C122.04 12.2 121.934 12.2427 121.849 12.328C121.806 12.3707 121.785 12.456 121.785 12.584V20.616Z" fill="white"/>
<path d="M57.0655 49C54.8564 49 53.0655 47.2091 53.0655 45V6.92C53.0655 4.71086 54.8564 2.92 57.0655 2.92H60.9896C62.1735 2.92 63.2966 3.44447 64.0566 4.35225L75.9124 18.5133C77.5132 20.4254 80.4544 20.4225 82.0514 18.5073L93.8502 4.35826C94.6101 3.44689 95.7355 2.92 96.9222 2.92H100.906C103.115 2.92 104.906 4.71086 104.906 6.92V45C104.906 47.2091 103.115 49 100.906 49H99.6255C97.4164 49 95.6255 47.2091 95.6255 45V27.701C95.6255 23.963 90.9542 22.2676 88.5567 25.1354L82.0435 32.9261C80.4482 34.8344 77.5167 34.8394 75.9148 32.9368L69.3414 25.1293C66.9383 22.2751 62.2815 23.9744 62.2815 27.7056V45C62.2815 47.2091 60.4906 49 58.2815 49H57.0655Z" fill="white"/>
<path d="M9.152 49C7.488 49 5.952 48.5947 4.544 47.784C3.136 46.9307 2.02667 45.8213 1.216 44.456C0.405333 43.048 0 41.4907 0 39.784C0 37.6279 1.74788 35.88 3.904 35.88H5.76C7.6687 35.88 9.216 37.4273 9.216 39.336C9.216 39.3576 9.21661 39.3786 9.21782 39.3989C9.2281 39.5715 9.36314 39.72 9.536 39.72H36.352C36.5284 39.72 36.6989 39.5974 36.7288 39.4236C36.7336 39.3956 36.736 39.3664 36.736 39.336V30.952C36.736 30.79 36.5601 30.6671 36.4009 30.6367C36.3846 30.6336 36.3683 30.632 36.352 30.632H9.152C7.488 30.632 5.952 30.2267 4.544 29.416C3.136 28.5627 2.02667 27.432 1.216 26.024C0.405333 24.616 0 23.08 0 21.416V12.136C0 10.4293 0.405333 8.89333 1.216 7.528C2.02667 6.12 3.136 5.01066 4.544 4.2C5.952 3.34666 7.488 2.92 9.152 2.92H36.864C38.528 2.92 40.0427 3.34666 41.408 4.2C42.816 5.01066 43.9467 6.12 44.8 7.528C45.6533 8.89333 46.08 10.4293 46.08 12.136C46.08 14.2921 44.3321 16.04 42.176 16.04H40.192C38.2833 16.04 36.736 14.4927 36.736 12.584C36.736 12.581 36.736 12.5779 36.7359 12.575C36.7328 12.3804 36.5466 12.2 36.352 12.2H9.536C9.45067 12.2 9.36533 12.2427 9.28 12.328C9.23733 12.3707 9.216 12.456 9.216 12.584V20.968C9.216 21.1409 9.36314 21.288 9.536 21.288H36.864C38.528 21.288 40.0427 21.7147 41.408 22.568C42.816 23.3787 43.9467 24.488 44.8 25.896C45.6533 27.304 46.08 28.84 46.08 30.504V39.784C46.08 41.4907 45.6533 43.048 44.8 44.456C43.9467 45.8213 42.816 46.9307 41.408 47.784C40.0427 48.5947 38.528 49 36.864 49H9.152Z" fill="white"/>
<path d="M306.013 25.4552L278.01 51.4519C277.713 51.7263 277.322 51.9097 276.894 51.9742C276.467 52.0388 276.026 51.9812 275.64 51.81C275.253 51.6388 274.942 51.3633 274.752 51.0252C274.562 50.687 274.504 50.3046 274.587 49.9354L278.253 34.0493L263.843 29.3612C263.534 29.2609 263.258 29.0957 263.04 28.8805C262.822 28.6652 262.67 28.4065 262.595 28.1276C262.521 27.8487 262.528 27.5581 262.614 27.2819C262.701 27.0057 262.866 26.7525 263.093 26.5448L291.097 0.548083C291.393 0.273677 291.785 0.0903473 292.213 0.0257577C292.64 -0.0388318 293.08 0.0188235 293.467 0.190024C293.853 0.361224 294.165 0.636679 294.355 0.974823C294.545 1.31297 294.603 1.69545 294.52 2.06456L290.844 17.9681L305.253 22.6497C305.56 22.7506 305.834 22.9156 306.05 23.13C306.266 23.3444 306.418 23.6016 306.492 23.879C306.567 24.1563 306.561 24.4452 306.475 24.7201C306.39 24.995 306.228 25.2474 306.003 25.4552H306.013Z" fill="#FBE604"/>
</svg>
